<?xml version="1.0" encoding="UTF-8"?>
<svg id="a" xmlns="http://www.w3.org/2000/svg" viewBox="0 0 512 512">
    <defs>
        <style>
            .b{stroke-linecap:round;stroke-linejoin:round;stroke-width:5.54px;}.b,.c{fill:none;stroke:#000;}.d{fill:#fff;}.c{stroke-miterlimit:10;stroke-width:12px;}.e{fill:#0d47a1;}</style>
    </defs>
    <rect class="e" width="512" height="512" />
    <path class="d"
        d="M128.69,132.9c11.87-3.21,233.79-3.4,245.85-1,15.11,3,25.35,8.48,31.44,23.41.62.62,10.39,3.74,15.35,6.21,7.39,3.7,10.07,12.93,10.07,22.17,0,8.03,1.43,138.48,0,146.38-10.92,60.2-128.87,30.64-171.43,37.63-37.56,25.29-86.8,88.32-82.79,31.78-10.09-8.65-5.63-22.23-6.69-33.45-27.41,5.7-67.08-6.01-56.86-31.11-7.7-5.9-11.29-13.13-13.38-22.41-1.65-7.34-1.6-143.17,0-150.52,3.79-17.46,11.35-24.49,28.43-29.1Z" />
    <path class="b"
        d="M177.19,399.49c26.76-13.55,43.55-41.4,68.57-58.2,25.49-3.25,131.82,4.83,145.5-4.35,9.58-6.43,14.1-13.5,16.72-24.42,1.84-7.64.96-149.93-2.01-157.21-6.09-14.94-16.33-20.41-31.44-23.41-12.06-2.4-233.98-2.2-245.85,1-17.08,4.62-24.64,11.64-28.43,29.1-1.6,7.35-1.65,143.18,0,150.52,2.09,9.28,5.68,16.51,13.38,22.41,3.59,2.75,10.46,4.99,15.05,6.02,29.59,6.67,37.83-16.86,41.81,25.09,1.06,11.22-3.4,24.79,6.69,33.45Z" />
    <circle cx="188" cy="287" r="32" />
    <circle cx="256" cy="191" r="32" />
    <circle cx="324" cy="287" r="32" />
    <line class="c" x1="188" y1="287" x2="256" y2="191" />
    <line class="c" x1="324.5" y1="286.5" x2="256.5" y2="191.5" />
</svg>
